<svg width="33" height="32" viewBox="0 0 33 32" fill="none" xmlns="http://www.w3.org/2000/svg">
<g clip-path="url(#clip0_1128_6177)">
<path d="M32.8501 20.57H31.3301V22.09H32.8501V20.57Z" fill="white"/>
<path d="M8.47013 22.09V17.52H6.95013V3.81H5.43013V5.33H2.38013V6.86H3.90013V17.52H5.43013V22.09H6.95013V23.62H8.47013V25.14H22.1901V26.67H23.7101V23.62H26.7601V29.71H28.2801V23.62H31.3301V22.09H8.47013Z" fill="white"/>
<path d="M31.3302 19.05H28.2802V20.57H31.3302V19.05Z" fill="white"/>
<path d="M28.2801 3.81H26.7601V19.05H28.2801V3.81Z" fill="white"/>
<path d="M26.7601 29.71H6.95007V31.24H26.7601V29.71Z" fill="white"/>
<path d="M23.7101 8.38H22.1901V11.43H23.7101V8.38Z" fill="white"/>
<path d="M22.1902 11.43H20.6602V12.95H22.1902V11.43Z" fill="white"/>
<path d="M22.1901 6.86002H19.1401V8.38002H22.1901V6.86002Z" fill="white"/>
<path d="M22.1901 19.05H19.1401V20.57H22.1901V19.05Z" fill="white"/>
<path d="M20.6601 12.95H19.1401V14.48H20.6601V12.95Z" fill="white"/>
<path d="M19.1401 17.52H17.6201V19.05H19.1401V17.52Z" fill="white"/>
<path d="M19.1401 14.48H17.6201V16H19.1401V14.48Z" fill="white"/>
<path d="M19.1401 8.38H17.6201V9.9H19.1401V8.38Z" fill="white"/>
<path d="M17.6201 16H16.0901V17.52H17.6201V16Z" fill="white"/>
<path d="M17.6201 9.90002H16.0901V11.43H17.6201V9.90002Z" fill="white"/>
<path d="M16.0901 14.48H14.5701V16H16.0901V14.48Z" fill="white"/>
<path d="M16.0901 8.38H14.5701V9.9H16.0901V8.38Z" fill="white"/>
<path d="M16.09 17.52H13.05V19.05H16.09V17.52Z" fill="white"/>
<path d="M14.57 12.95H13.05V14.48H14.57V12.95Z" fill="white"/>
<path d="M14.5701 6.86002H11.5201V8.38002H14.5701V6.86002Z" fill="white"/>
<path d="M13.0501 11.43H11.5201V12.95H13.0501V11.43Z" fill="white"/>
<path d="M11.5201 8.38H10.0001V11.43H11.5201V8.38Z" fill="white"/>
<path d="M11.5201 3.81001V5.33001H22.1901V3.81001H26.7601V2.28001H22.1901V0.76001H11.5201V2.28001H6.95007V3.81001H11.5201Z" fill="white"/>
<path d="M22.1901 28.19V26.67H2.38013V28.19H5.43013V29.71H6.95013V28.19H22.1901Z" fill="white"/>
<path d="M2.3801 6.86002H0.850098V26.67H2.3801V6.86002Z" fill="white"/>
</g>
<defs>
<clipPath id="clip0_1128_6177">
<rect width="32" height="32" fill="white" transform="translate(0.850098)"/>
</clipPath>
</defs>
</svg>
